<svg xmlns="http://www.w3.org/2000/svg" viewBox="1 1 514 501" preserveAspectRatio="xMidYMid meet">
  <path d="M 1 251.500 L 1 502 258 502 L 515 502 515 251.500 L 515 1 258 1 L 1 1 1 251.500 M 340 81.640 C 321.780 82.996, 306.847 92.195, 302.592 104.684 C 300.716 110.189, 300.480 117, 302.165 117 C 302.806 117, 306.068 114.379, 309.415 111.176 C 315.405 105.442, 324.593 99.259, 325.611 100.277 C 325.897 100.563, 323.789 102.981, 320.928 105.649 C 315.251 110.941, 306 123.427, 306 125.796 C 306 128.273, 322.111 126.863, 329 123.782 C 335.805 120.739, 343.038 113.537, 346.380 106.479 C 349.703 99.460, 352.184 89.702, 351.804 85.147 C 351.519 81.726, 351.283 81.494, 348 81.402 C 346.075 81.349, 342.475 81.455, 340 81.640 M 242.500 88.619 C 241.400 88.895, 236.900 90.026, 232.500 91.131 C 203.178 98.498, 176.926 121.824, 165.962 150.254 C 160.907 163.364, 159.703 170.142, 159.705 185.500 C 159.706 197.462, 160.093 200.955, 162.357 209.491 C 165.367 220.839, 169.910 231.001, 176.083 240.191 C 182.990 250.475, 200.505 266.828, 202.488 264.845 C 202.758 264.575, 203.467 258.645, 204.063 251.668 L 205.147 238.981 199.160 231.539 C 188.212 217.930, 183 203.372, 183 186.405 C 183 173.146, 185.111 164.227, 191.073 152.293 C 199.554 135.318, 213.177 123.054, 231.007 116.345 C 248.324 109.828, 265.552 109.721, 283.399 116.021 C 288.041 117.659, 292.268 119, 292.791 119 C 293.314 119, 294.038 116.770, 294.400 114.045 C 294.761 111.320, 295.719 107.213, 296.528 104.919 C 298.949 98.059, 298.545 96.435, 293.963 94.602 C 282.489 90.011, 275.654 88.771, 260 88.442 C 251.475 88.263, 243.600 88.343, 242.500 88.619 M 249.396 145.250 C 248.652 160.407, 248.246 163.500, 247 163.500 C 245.733 163.500, 245.458 160.740, 245.227 145.750 C 245.013 131.816, 244.669 128, 243.628 128 C 241.983 128, 240.132 140.411, 239.295 157.062 C 238.547 171.932, 239.661 176.419, 245.596 182.439 C 247.973 184.849, 250.228 188.062, 250.609 189.577 C 251.270 192.214, 250.809 209.878, 249.364 237.250 C 248.610 251.541, 249.214 252.715, 254.262 246.759 L 257.025 243.500 259.300 246.250 C 261.683 249.131, 264.019 249.880, 263.973 247.750 C 263.957 247.063, 263.292 236.600, 262.494 224.500 C 261.696 212.400, 261.034 199.242, 261.022 195.261 L 261 188.021 265.977 182.525 C 268.715 179.502, 271.302 175.785, 271.727 174.264 C 273.856 166.648, 271.091 130, 268.388 130 C 267.263 130, 267 132.992, 267 145.800 C 267 161.977, 266.282 165.309, 263.324 162.854 C 262.331 162.030, 262 157.931, 262 146.459 C 262 130.388, 261.663 128, 259.393 128 C 258.258 128, 257.997 131.107, 257.985 144.750 C 257.976 153.963, 257.545 162.171, 257.026 162.992 C 254.871 166.401, 253.944 161.819, 253.325 144.682 C 252.865 131.981, 252.348 127, 251.489 127 C 250.636 127, 250.034 132.251, 249.396 145.250 M 326 130.119 C 322.975 131.143, 318.363 132.238, 315.750 132.552 C 313.137 132.866, 311 133.598, 311 134.179 C 311 134.760, 312.313 136.731, 313.917 138.559 C 318.267 143.513, 323.530 152.956, 326.445 161.035 C 335.429 185.942, 329.892 214.618, 312.348 234.036 L 308.759 238.009 309.482 251.504 C 310.003 261.234, 310.553 265, 311.452 265 C 313.227 265, 319.682 260.156, 325.560 254.414 C 335.367 244.833, 344.939 229.576, 349.060 216.956 C 357.931 189.788, 354.671 159.674, 340.268 135.750 C 335.061 127.102, 334.992 127.075, 326 130.119 M 290.654 130.830 C 288.548 133.156, 284.634 142.760, 282.632 150.509 C 278.404 166.880, 276.408 203.255, 279.352 210.301 C 280.096 212.081, 282.387 214.821, 284.444 216.389 L 288.183 219.242 287.493 235.371 C 286.713 253.607, 286.953 253.084, 278.194 255.631 C 271.281 257.642, 271.599 259.251, 280 264.772 C 286.408 268.984, 299.346 273.987, 300.596 272.737 C 300.949 272.384, 300.732 258.461, 300.114 241.798 C 299.495 225.134, 298.992 193.808, 298.995 172.184 C 298.998 146.985, 298.628 132.174, 297.965 130.934 C 296.658 128.492, 292.820 128.437, 290.654 130.830 M 213.731 147.374 C 208.050 152.638, 204 164.862, 204 176.742 C 204 185.232, 205.421 189.247, 210.361 194.714 C 212.316 196.879, 214.393 199.904, 214.976 201.438 C 215.969 204.049, 215.356 218.543, 212.356 263.397 L 211.694 273.294 214.388 272.618 C 223.758 270.266, 240.215 261.646, 240.790 258.789 C 240.988 257.806, 239.245 256.826, 235.290 255.696 C 232.105 254.786, 228.920 253.657, 228.211 253.188 C 226.843 252.281, 225.680 240.609, 224.451 215.447 L 223.764 201.394 228.030 196.466 C 235.044 188.362, 236.903 181.272, 235.045 169.726 C 232.645 154.822, 226.580 145, 219.778 145 C 217.495 145, 215.408 145.819, 213.731 147.374 M 252.956 261.547 C 243.887 271.201, 227.798 279.634, 211.962 283.034 C 206.244 284.262, 184.512 283.898, 180.250 282.503 C 178.604 281.964, 178 282.161, 178 283.235 C 178 285.155, 190.594 290.944, 198.430 292.626 C 215.524 296.297, 235.082 292.396, 250.807 282.178 C 256.700 278.349, 255.703 278.208, 266 284.324 C 285.489 295.899, 309.706 297.061, 329.497 287.370 C 335.379 284.490, 337.237 281.189, 332.250 282.477 C 330.738 282.868, 323.822 283.414, 316.883 283.691 C 306.052 284.123, 303.149 283.890, 296.383 282.045 C 285.225 279.003, 275.528 273.933, 265.546 265.925 C 260.800 262.116, 256.563 259, 256.132 259 C 255.701 259, 254.272 260.146, 252.956 261.547 M 224.223 329.557 C 221.160 331.702, 221.160 337.298, 224.223 339.443 C 227.086 341.449, 232.416 341.442, 234.429 339.429 C 235.293 338.564, 236 336.340, 236 334.485 C 236 330.637, 233.153 328, 229 328 C 227.595 328, 225.445 328.701, 224.223 329.557 M 439 358.500 L 439 385 442 385 L 445 385 445 358.500 L 445 332 442 332 L 439 332 439 358.500 M 36 360.478 L 36 386 55.441 386 C 66.486 386, 75.133 385.594, 75.463 385.061 C 75.782 384.544, 75.751 382.294, 75.394 380.061 L 74.744 376 61.372 376 L 48 376 48 370.500 L 48 365 59.500 365 L 71 365 71 360 L 71 355 59.500 355 L 48 355 48 350.029 L 48 345.058 61.250 344.779 L 74.500 344.500 74.500 340 L 74.500 335.500 55.250 335.228 L 36 334.957 36 360.478 M 176.450 336.270 C 176.182 336.968, 176.084 348.331, 176.231 361.520 L 176.500 385.500 182.500 385.500 L 188.500 385.500 189 376.500 L 189.500 367.500 200.803 367.217 L 212.107 366.933 211.803 362.217 L 211.500 357.500 200.201 357.217 L 188.902 356.934 189.201 351.217 L 189.500 345.500 202.154 345.221 C 216.112 344.913, 216.329 344.803, 215.316 338.558 L 214.738 335 195.838 335 C 181.483 335, 176.820 335.305, 176.450 336.270 M 281.713 335.621 C 281.321 336.013, 281 347.283, 281 360.667 L 281 385 284.500 385 L 288 385 288 367.917 C 288 357.146, 288.364 350.956, 288.985 351.167 C 289.526 351.350, 293.534 357.575, 297.891 365 C 304.236 375.812, 306.249 378.500, 308.003 378.500 C 309.748 378.500, 311.609 376.061, 317.156 366.500 C 326.982 349.567, 327.050 349.470, 328.094 351.118 C 328.576 351.878, 328.976 359.813, 328.985 368.750 L 329 385 332 385 L 335 385 335 360 L 335 335 332.092 335 C 329.382 335, 328.486 336.193, 318.943 352.500 C 313.311 362.125, 308.420 370, 308.074 370 C 307.728 370, 302.890 362.238, 297.323 352.750 C 289.136 338.797, 286.746 335.443, 284.814 335.204 C 283.500 335.041, 282.104 335.229, 281.713 335.621 M 247.710 338.623 C 247.320 339.014, 247 341.058, 247 343.167 C 247 346.191, 246.620 347, 245.200 347 C 242.485 347, 241 349.025, 241 352.725 C 241 355.619, 241.388 356.128, 244 356.650 L 247 357.250 247.056 365.875 C 247.126 376.565, 248.499 380.758, 252.898 383.715 C 255.532 385.487, 257.695 386, 262.525 386 C 270.034 386, 271.752 384.624, 270.357 379.730 C 269.529 376.829, 268.981 376.449, 264.968 376 L 260.500 375.500 260.500 366 L 260.500 356.500 264.750 356.193 L 269 355.885 269 351.443 L 269 347 264.557 347 L 260.115 347 259.807 342.750 L 259.500 338.500 253.960 338.206 C 250.913 338.045, 248.101 338.232, 247.710 338.623 M 135.204 348.128 C 124.933 353.212, 121.438 365.097, 127.004 376.008 C 132.775 387.321, 151.442 389.598, 161.339 380.197 C 165.626 376.125, 167.323 372.099, 167.323 366 C 167.323 359.901, 165.626 355.875, 161.339 351.803 C 154.963 345.747, 143.322 344.110, 135.204 348.128 M 80 348.460 C 80 350.281, 92.486 380.408, 94.645 383.798 C 95.930 385.815, 96.788 386.060, 101.644 385.798 L 107.179 385.500 114.590 368.001 C 118.665 358.377, 122 349.691, 122 348.699 C 122 347.155, 121.257 346.939, 116.829 347.198 L 111.658 347.500 106.909 359 C 104.298 365.325, 101.787 370.435, 101.331 370.355 C 100.874 370.275, 98.395 365.100, 95.822 358.855 L 91.143 347.500 85.572 347.200 C 81.062 346.957, 80 347.198, 80 348.460 M 223.228 366.250 L 223.500 385.500 226.888 385.824 C 228.752 386.002, 231.339 385.881, 232.638 385.555 L 235 384.962 235 365.981 L 235 347 228.978 347 L 222.957 347 223.228 366.250 M 357.223 349.119 C 349.319 353.031, 345.622 362.749, 348.402 372.310 C 351.889 384.305, 365.727 389.489, 377.689 383.282 C 384.600 379.695, 381.601 375.063, 374.538 378.415 C 367.678 381.670, 358.971 379.607, 355.619 373.932 C 352.546 368.730, 353.340 368.400, 369.642 368.109 C 377.808 367.963, 384.659 367.675, 384.865 367.468 C 385.072 367.261, 384.939 365.080, 384.570 362.619 C 382.691 350.086, 368.962 343.308, 357.223 349.119 M 399.009 348.776 C 394.462 350.572, 393.266 352.355, 394.902 354.898 C 395.665 356.085, 396.426 356.047, 399.921 354.648 C 409.085 350.982, 417.502 353.677, 418.195 360.500 L 418.500 363.500 409 364.032 C 403.775 364.324, 398.511 365.115, 397.301 365.789 C 392.138 368.669, 390.632 374.453, 393.566 380.128 C 396.535 385.868, 407.028 387.809, 414.500 384 C 419.192 381.608, 419 381.629, 419 383.500 C 419 384.500, 420 385, 422 385 L 425 385 424.998 371.750 C 424.997 357.135, 423.952 353.440, 418.739 349.618 C 414.916 346.815, 405.041 346.394, 399.009 348.776 M 463.415 348.421 C 457.291 351.088, 454.297 357.949, 457.030 363.055 C 458.433 365.678, 462.359 367.543, 469.500 368.977 C 476.620 370.408, 480 372.336, 480 374.966 C 480 379.642, 469.870 381.644, 462.271 378.469 C 457.985 376.678, 456 377.145, 456 379.943 C 456 384.283, 468.431 387.320, 476.865 385.041 C 483.518 383.243, 486.177 380.040, 485.804 374.274 C 485.544 370.245, 485.035 369.254, 482.274 367.399 C 480.500 366.207, 477.350 364.927, 475.274 364.555 C 464.036 362.539, 460.728 360.246, 462.982 356.034 C 465.101 352.075, 471.861 351.540, 481.750 354.549 C 483.743 355.155, 484 354.883, 484 352.164 C 484 349.468, 483.543 348.967, 480.250 348.053 C 475.115 346.627, 467.136 346.801, 463.415 348.421 M 361.500 353.369 C 357.711 355.084, 355.347 357.734, 354.470 361.250 L 353.783 364 366.392 364 C 373.326 364, 379 363.731, 379 363.401 C 379 361.543, 375.501 355.903, 373.560 354.631 C 370.128 352.383, 364.890 351.835, 361.500 353.369 M 139.766 357.918 C 136.902 360.476, 136.500 361.452, 136.500 365.837 C 136.500 369.726, 137.029 371.401, 138.876 373.368 C 142.033 376.728, 146.075 377.530, 149.897 375.553 C 153.743 373.565, 155 371.211, 155 366 C 155 360.830, 153.743 358.436, 150.020 356.510 C 145.774 354.315, 143.440 354.635, 139.766 357.918 M 402.250 369.491 C 400.462 370.268, 399 371.338, 399 371.870 C 399 372.402, 398.735 373.528, 398.410 374.374 C 398.062 375.281, 398.864 376.955, 400.365 378.456 C 403.692 381.783, 409.377 381.892, 414.102 378.717 C 416.936 376.813, 417.551 375.735, 417.807 372.217 L 418.115 368 411.807 368.039 C 408.338 368.061, 404.038 368.714, 402.250 369.491" stroke="none" fill="#ffffff" fill-rule="evenodd" />
  <path d="M 340 81.640 C 317.222 83.335, 301 96.661, 301 113.678 C 301 116.055, 301.285 118, 301.634 118 C 301.982 118, 305.584 114.850, 309.637 111 C 316.718 104.273, 320 102.483, 320 105.345 C 320 106.085, 319.041 107.547, 317.868 108.595 C 314.754 111.379, 306 124.065, 306 125.796 C 306 128.273, 322.111 126.863, 329 123.782 C 335.805 120.739, 343.038 113.537, 346.380 106.479 C 349.703 99.460, 352.184 89.702, 351.804 85.147 C 351.519 81.726, 351.283 81.494, 348 81.402 C 346.075 81.349, 342.475 81.455, 340 81.640 M 328 129.693 C 326.075 130.534, 321.350 131.661, 317.500 132.197 C 313.650 132.733, 310.324 133.346, 310.110 133.559 C 309.895 133.773, 311.298 135.695, 313.228 137.831 C 318.059 143.178, 323.361 152.487, 326.445 161.035 C 335.427 185.937, 329.891 214.618, 312.356 234.028 L 308.775 237.992 309.500 251.996 C 309.899 259.698, 310.431 266, 310.682 266 C 311.909 266, 320.107 259.650, 325.053 254.868 C 331.911 248.239, 337.927 240.142, 343.044 230.656 C 358.597 201.822, 357.502 164.376, 340.268 135.750 C 335.197 127.327, 334.360 126.913, 328 129.693 M 252.956 261.547 C 243.887 271.201, 227.798 279.634, 211.962 283.034 C 206.425 284.223, 186.019 283.859, 179.250 282.449 C 177.378 282.060, 176 282.178, 176 282.729 C 176 284.258, 191.632 291.168, 198.355 292.611 C 215.529 296.297, 235.054 292.414, 250.807 282.178 C 256.700 278.349, 255.703 278.208, 266 284.324 C 285.827 296.099, 310.213 297.080, 330.376 286.912 C 340.448 281.833, 340.832 280.268, 331.458 282.506 C 328.181 283.289, 320.541 283.945, 314.480 283.964 C 295.928 284.024, 281.456 278.689, 265.546 265.925 C 260.800 262.116, 256.563 259, 256.132 259 C 255.701 259, 254.272 260.146, 252.956 261.547 M 224.223 329.557 C 221.160 331.702, 221.160 337.298, 224.223 339.443 C 227.086 341.449, 232.416 341.442, 234.429 339.429 C 235.293 338.564, 236 336.340, 236 334.485 C 236 330.637, 233.153 328, 229 328 C 227.595 328, 225.445 328.701, 224.223 329.557 M 176.450 336.270 C 176.182 336.968, 176.084 348.331, 176.231 361.520 L 176.500 385.500 182.500 385.500 L 188.500 385.500 189 376.500 L 189.500 367.500 200.803 367.217 L 212.107 366.933 211.803 362.217 L 211.500 357.500 200.201 357.217 L 188.902 356.934 189.201 351.217 L 189.500 345.500 202.154 345.221 C 216.112 344.913, 216.329 344.803, 215.316 338.558 L 214.738 335 195.838 335 C 181.483 335, 176.820 335.305, 176.450 336.270 M 247.710 338.623 C 247.320 339.014, 247 341.058, 247 343.167 C 247 346.191, 246.620 347, 245.200 347 C 242.485 347, 241 349.025, 241 352.725 C 241 355.591, 241.399 356.130, 243.890 356.628 L 246.781 357.206 247.159 367.426 C 247.582 378.838, 248.802 381.812, 254.211 384.609 C 258.303 386.725, 267.688 386.741, 269.794 384.635 C 270.979 383.449, 271.110 382.370, 270.378 379.804 C 269.526 376.819, 269.004 376.452, 264.968 376 L 260.500 375.500 260.500 366 L 260.500 356.500 264.750 356.193 L 269 355.885 269 351.443 L 269 347 264.557 347 L 260.115 347 259.807 342.750 L 259.500 338.500 253.960 338.206 C 250.913 338.045, 248.101 338.232, 247.710 338.623 M 223.228 366.250 L 223.500 385.500 226.888 385.824 C 228.752 386.002, 231.339 385.881, 232.638 385.555 L 235 384.962 235 365.981 L 235 347 228.978 347 L 222.957 347 223.228 366.250" stroke="none" fill="#a2ce2f" fill-rule="evenodd" />
  <path d="M 242.500 88.677 C 217.749 94.179, 202.795 101.985, 187.455 117.410 C 178.348 126.568, 170.431 138.665, 165.962 150.254 C 160.907 163.364, 159.703 170.142, 159.705 185.500 C 159.706 197.462, 160.093 200.955, 162.357 209.491 C 166.695 225.845, 173.945 239.214, 185.090 251.408 C 190.248 257.051, 201.757 266.576, 202.510 265.824 C 202.723 265.611, 203.402 259.483, 204.020 252.206 L 205.143 238.976 199.158 231.536 C 188.212 217.930, 183 203.371, 183 186.405 C 183 173.146, 185.111 164.227, 191.073 152.293 C 199.554 135.318, 213.177 123.054, 231.007 116.345 C 250.857 108.875, 270.195 109.843, 292.106 119.403 C 293.432 119.981, 293.822 119.169, 294.342 114.751 C 294.688 111.807, 295.890 106.725, 297.015 103.457 C 298.916 97.931, 298.942 97.431, 297.383 96.291 C 295.068 94.598, 284.864 91.289, 276.487 89.515 C 269.971 88.135, 247.438 87.579, 242.500 88.677" stroke="none" fill="#0c563d" fill-rule="evenodd" />
  <path d="M 242.549 128.187 C 241.469 131.433, 239.894 145.276, 239.323 156.539 C 238.559 171.615, 239.693 176.641, 245.037 181.870 C 247.077 183.867, 249.253 186.483, 249.873 187.684 C 251.324 190.496, 251.316 199.192, 249.840 227.238 C 249.181 239.744, 248.992 250.319, 249.419 250.738 C 249.846 251.157, 251.421 250.037, 252.920 248.250 C 256.247 244.283, 257.772 244.184, 260.623 247.750 C 261.832 249.262, 263.102 250.222, 263.446 249.881 C 263.790 249.541, 263.382 238.516, 262.540 225.381 C 261.698 212.247, 261.007 198.467, 261.005 194.761 C 261 188.078, 261.042 187.975, 265.977 182.525 C 268.715 179.502, 271.302 175.785, 271.727 174.264 C 273.359 168.428, 271.814 139.376, 269.334 129.250 C 267.885 123.333, 267.022 128.556, 266.773 144.750 C 266.512 161.742, 266.415 162.500, 264.500 162.500 C 262.597 162.500, 262.476 161.667, 262 145.331 C 261.725 135.887, 261.192 127.855, 260.817 127.480 C 258.622 125.295, 258 129.181, 258 145.090 C 258 159.465, 257.764 162.153, 256.457 162.655 C 255.608 162.981, 254.700 163.033, 254.438 162.771 C 254.176 162.509, 253.674 154.354, 253.323 144.647 C 252.859 131.819, 252.353 127, 251.470 127 C 250.589 127, 250.055 131.944, 249.527 145 C 248.850 161.761, 248.669 163, 246.900 163 C 245.106 163, 245 162.026, 245 145.559 C 245 134.929, 244.607 127.875, 243.993 127.496 C 243.439 127.153, 242.789 127.464, 242.549 128.187 M 290.654 130.830 C 288.548 133.156, 284.634 142.760, 282.632 150.509 C 278.404 166.880, 276.408 203.255, 279.352 210.301 C 280.096 212.081, 282.387 214.821, 284.444 216.389 L 288.183 219.242 287.493 235.371 C 286.708 253.723, 286.989 253.137, 277.750 255.720 C 274.587 256.604, 272 257.664, 272 258.075 C 272 261.779, 298.158 275.176, 300.607 272.726 C 300.954 272.379, 300.732 258.461, 300.114 241.798 C 299.495 225.134, 298.992 193.808, 298.995 172.184 C 298.998 146.985, 298.628 132.174, 297.965 130.934 C 296.658 128.492, 292.820 128.437, 290.654 130.830 M 213.731 147.374 C 208.050 152.638, 204 164.862, 204 176.742 C 204 185.232, 205.421 189.247, 210.361 194.714 C 212.316 196.879, 214.393 199.904, 214.976 201.438 C 215.968 204.047, 215.358 218.503, 212.366 263.250 C 211.952 269.434, 212.075 273, 212.700 273 C 218.697 273, 243.504 260.008, 241.340 258.001 C 240.878 257.572, 238.025 256.501, 235 255.620 C 231.975 254.739, 228.920 253.639, 228.211 253.176 C 226.843 252.282, 225.681 240.623, 224.451 215.447 L 223.764 201.394 228.030 196.466 C 235.044 188.362, 236.903 181.272, 235.045 169.726 C 232.645 154.822, 226.580 145, 219.778 145 C 217.495 145, 215.408 145.819, 213.731 147.374 M 439 358.500 L 439 385 442 385 L 445 385 445 358.500 L 445 332 442 332 L 439 332 439 358.500 M 36 360.478 L 36 386 55.441 386 C 66.486 386, 75.133 385.594, 75.463 385.061 C 75.782 384.544, 75.751 382.294, 75.394 380.061 L 74.744 376 61.372 376 L 48 376 48 370.500 L 48 365 59.500 365 L 71 365 71 360 L 71 355 59.500 355 L 48 355 48 350.029 L 48 345.058 61.250 344.779 L 74.500 344.500 74.500 340 L 74.500 335.500 55.250 335.228 L 36 334.957 36 360.478 M 281.713 335.621 C 281.321 336.013, 281 347.283, 281 360.667 L 281 385 284.500 385 L 288 385 288 368.500 C 288 355.948, 288.299 352.008, 289.250 352.035 C 289.938 352.054, 292.975 356.398, 296 361.686 C 305.821 378.858, 306.791 380.184, 308.750 379.121 C 309.713 378.599, 313.875 372.285, 318 365.090 C 328.404 346.943, 329 347.128, 329 368.500 L 329 385 332 385 L 335 385 335 360 L 335 335 332.093 335 C 329.383 335, 328.515 336.157, 319.343 351.982 C 313.003 362.919, 308.980 368.879, 308.040 368.726 C 307.238 368.595, 302.218 361.066, 296.885 351.994 C 289.081 338.717, 286.725 335.442, 284.807 335.204 C 283.497 335.041, 282.104 335.229, 281.713 335.621 M 135.204 348.128 C 124.933 353.212, 121.438 365.097, 127.004 376.008 C 132.775 387.321, 151.442 389.598, 161.339 380.197 C 165.626 376.125, 167.323 372.099, 167.323 366 C 167.323 359.901, 165.626 355.875, 161.339 351.803 C 154.963 345.747, 143.322 344.110, 135.204 348.128 M 79 347.310 C 79 348.394, 94.214 383.553, 95.193 384.733 C 95.953 385.648, 98.090 385.994, 101.749 385.795 L 107.179 385.500 114.596 368 C 124.579 344.446, 124.256 346.838, 117.402 347.198 L 111.635 347.500 107.068 358.737 C 104.555 364.917, 102.011 369.980, 101.414 369.987 C 100.817 369.994, 98.270 364.938, 95.754 358.750 L 91.180 347.500 85.090 347.202 C 81.740 347.039, 79 347.087, 79 347.310 M 357.223 349.119 C 349.319 353.031, 345.622 362.749, 348.402 372.310 C 351.854 384.184, 365.127 389.304, 377.382 383.489 C 381.807 381.389, 382.878 379.450, 380.775 377.346 C 379.444 376.015, 378.844 376.080, 375.403 377.924 C 368.024 381.879, 358.844 379.840, 355.423 373.487 C 354.414 371.612, 353.942 369.724, 354.376 369.289 C 354.810 368.855, 361.765 368.414, 369.832 368.308 C 386.364 368.092, 386.204 368.183, 384.056 360.208 C 381.056 349.065, 368.126 343.722, 357.223 349.119 M 399.524 348.543 C 394.132 350.589, 393.430 351.453, 394.770 354.394 L 395.885 356.843 399.654 354.921 C 408.183 350.573, 418 353.597, 418 360.573 L 418 364 409.968 364 C 397.918 364, 392 367.383, 392 374.272 C 392 383.893, 402.892 388.828, 414.168 384.316 C 417.245 383.085, 418.483 382.950, 418.772 383.816 C 418.989 384.467, 420.479 385, 422.083 385 L 425 385 424.998 371.750 C 424.997 357.135, 423.952 353.440, 418.739 349.618 C 415.155 346.990, 405.101 346.428, 399.524 348.543 M 463.415 348.421 C 457.291 351.088, 454.297 357.949, 457.030 363.055 C 458.433 365.678, 462.359 367.543, 469.500 368.977 C 476.620 370.408, 480 372.336, 480 374.966 C 480 379.748, 470.039 381.600, 461.878 378.334 C 457.914 376.749, 457.650 376.758, 456.358 378.526 C 454.396 381.209, 454.559 381.498, 459.225 383.598 C 465.206 386.290, 476.279 386.215, 481 383.451 C 484.927 381.151, 487.136 376.162, 486.044 372.059 C 485.085 368.459, 480.192 365.495, 472.814 364.044 C 469.341 363.361, 465.712 362.381, 464.750 361.866 C 462.137 360.468, 462.456 355.365, 465.250 353.853 C 468.231 352.240, 475.864 352.287, 479.861 353.942 C 483.508 355.453, 483.853 355.297, 484.228 351.967 C 484.449 350.011, 483.841 349.327, 481 348.335 C 476.342 346.709, 467.246 346.754, 463.415 348.421 M 361.500 353.403 C 357.725 355.069, 355.351 357.719, 354.470 361.250 L 353.783 364 365.892 364 L 378 364 378 361.577 C 378 358.402, 372.973 353.445, 368.935 352.637 C 364.929 351.836, 365.086 351.820, 361.500 353.403 M 139.766 357.918 C 136.902 360.476, 136.500 361.452, 136.500 365.837 C 136.500 369.726, 137.029 371.401, 138.876 373.368 C 142.033 376.728, 146.075 377.530, 149.897 375.553 C 153.743 373.565, 155 371.211, 155 366 C 155 360.830, 153.743 358.436, 150.020 356.510 C 145.774 354.315, 143.440 354.635, 139.766 357.918 M 402.250 369.491 C 399.474 370.698, 399 371.412, 399 374.395 C 399 380.893, 407.319 383.274, 414.102 378.717 C 416.936 376.813, 417.551 375.735, 417.807 372.217 L 418.115 368 411.807 368.039 C 408.338 368.061, 404.038 368.714, 402.250 369.491" stroke="none" fill="#3d4246" fill-rule="evenodd" />
</svg>